<svg width="24" height="25" viewBox="0 0 24 25" fill="none" xmlns="http://www.w3.org/2000/svg">
<path d="M12 20.9297C16.8152 20.9297 20.7188 17.0262 20.7188 12.2109C20.7188 7.3957 16.8152 3.49219 12 3.49219C7.18477 3.49219 3.28125 7.3957 3.28125 12.2109C3.28125 17.0262 7.18477 20.9297 12 20.9297Z" fill="#EA4C89"/>
<path fill-rule="evenodd" clip-rule="evenodd" d="M12 3.21094C7.03145 3.21094 3 7.24239 3 12.2109C3 17.1795 7.03145 21.2109 12 21.2109C16.9588 21.2109 21 17.1795 21 12.2109C21 7.24239 16.9588 3.21094 12 3.21094ZM17.9447 7.35953C19.0184 8.66755 19.6627 10.3367 19.6822 12.1426C19.4284 12.0938 16.8904 11.5764 14.333 11.8986C14.2744 11.7717 14.2256 11.635 14.167 11.4984C14.0108 11.1274 13.8352 10.7467 13.6594 10.3856C16.4902 9.23374 17.7787 7.57428 17.9447 7.35953ZM12 4.53849C13.9523 4.53849 15.7386 5.27059 17.0955 6.47124C16.9588 6.66647 15.7972 8.21853 13.064 9.24347C11.8048 6.93002 10.4089 5.03632 10.1941 4.74347C10.77 4.60681 11.3753 4.53849 12 4.53849ZM8.72996 5.26083C8.93494 5.53415 10.3015 7.43762 11.5803 9.70224C7.98807 10.6589 4.81562 10.6394 4.47397 10.6394C4.9718 8.25758 6.58243 6.27601 8.72996 5.26083ZM4.30803 12.2207C4.30803 12.1426 4.30803 12.0645 4.30803 11.9864C4.63991 11.9962 8.36876 12.045 12.205 10.8932C12.4295 11.3226 12.6345 11.7619 12.8297 12.2011C12.7321 12.2305 12.6247 12.2598 12.5271 12.289C8.56399 13.5677 6.45553 17.0623 6.27982 17.3552C5.05965 15.9984 4.30803 14.1925 4.30803 12.2207ZM12 19.9029C10.2234 19.9029 8.58352 19.2977 7.28525 18.2825C7.42191 17.9995 8.98371 14.993 13.3178 13.4799C13.3373 13.4701 13.3471 13.4701 13.3666 13.4604C14.4501 16.2619 14.8894 18.6144 15.0065 19.2879C14.0792 19.6881 13.064 19.9029 12 19.9029ZM16.2852 18.5851C16.2072 18.1166 15.7972 15.8715 14.7917 13.109C17.2028 12.7283 19.3113 13.353 19.5749 13.4409C19.243 15.5786 18.013 17.4235 16.2852 18.5851Z" fill="#C32361"/>
</svg>
