<svg width="14" height="14" viewBox="0 0 14 14" fill="none" xmlns="http://www.w3.org/2000/svg">
<path fill-rule="evenodd" clip-rule="evenodd" d="M2.1875 10.5C2.1875 10.384 2.23359 10.2727 2.31564 10.1906C2.39769 10.1086 2.50897 10.0625 2.625 10.0625H11.375C11.491 10.0625 11.6023 10.1086 11.6844 10.1906C11.7664 10.2727 11.8125 10.384 11.8125 10.5C11.8125 10.616 11.7664 10.7273 11.6844 10.8094C11.6023 10.8914 11.491 10.9375 11.375 10.9375H2.625C2.50897 10.9375 2.39769 10.8914 2.31564 10.8094C2.23359 10.7273 2.1875 10.616 2.1875 10.5ZM2.1875 7C2.1875 6.88397 2.23359 6.77269 2.31564 6.69064C2.39769 6.60859 2.50897 6.5625 2.625 6.5625H11.375C11.491 6.5625 11.6023 6.60859 11.6844 6.69064C11.7664 6.77269 11.8125 6.88397 11.8125 7C11.8125 7.11603 11.7664 7.22731 11.6844 7.30936C11.6023 7.39141 11.491 7.4375 11.375 7.4375H2.625C2.50897 7.4375 2.39769 7.39141 2.31564 7.30936C2.23359 7.22731 2.1875 7.11603 2.1875 7ZM2.1875 3.5C2.1875 3.38397 2.23359 3.27269 2.31564 3.19064C2.39769 3.10859 2.50897 3.0625 2.625 3.0625H11.375C11.491 3.0625 11.6023 3.10859 11.6844 3.19064C11.7664 3.27269 11.8125 3.38397 11.8125 3.5C11.8125 3.61603 11.7664 3.72731 11.6844 3.80936C11.6023 3.89141 11.491 3.9375 11.375 3.9375H2.625C2.50897 3.9375 2.39769 3.89141 2.31564 3.80936C2.23359 3.72731 2.1875 3.61603 2.1875 3.5Z" fill="#5C6066"/>
</svg>
