<svg width="24" height="25" viewBox="0 0 24 25" fill="none" xmlns="http://www.w3.org/2000/svg">
<path d="M8.33802 11.5275C8.06902 11.2401 7.64987 11.2564 7.46705 11.6221L3.05572 20.4449C2.97394 20.6084 2.98265 20.8026 3.07874 20.9581C3.17483 21.1136 3.3446 21.2082 3.52739 21.2082H9.67079C9.87188 21.2128 10.0568 21.0985 10.1426 20.9166C11.4672 18.1777 10.6647 14.0134 8.33802 11.5275Z" fill="url(#paint0_linear_1_1385)"/>
<path d="M11.5758 3.50129C9.10851 7.41045 9.27129 11.7399 10.8965 14.9904L13.8587 20.9149C13.9481 21.0936 14.1307 21.2064 14.3304 21.2064H20.4737C20.6565 21.2064 20.8263 21.1118 20.9224 20.9563C21.0184 20.8008 21.0272 20.6066 20.9454 20.4432C20.9454 20.4432 12.6808 3.91155 12.4729 3.49793C12.287 3.12765 11.8148 3.12261 11.5758 3.50129Z" fill="#2681FF"/>
<defs>
<linearGradient id="paint0_linear_1_1385" x1="7.58038" y1="9.93259" x2="1.39563" y2="16.5761" gradientUnits="userSpaceOnUse">
<stop stop-color="#0052CC"/>
<stop offset="0.923" stop-color="#2684FF"/>
</linearGradient>
</defs>
</svg>
