<svg width="24" height="25" viewBox="0 0 24 25" fill="none" xmlns="http://www.w3.org/2000/svg">
<path d="M12.4838 11.4484C11.7655 11.756 10.9502 12.1047 9.89357 12.1047C9.45156 12.1038 9.0117 12.0432 8.58594 11.9244L9.31671 19.4272C9.34257 19.7408 9.48543 20.0331 9.71692 20.2463C9.94839 20.4594 10.2516 20.5777 10.5662 20.5777C10.5662 20.5777 11.6024 20.6315 11.9481 20.6315C12.3203 20.6315 13.436 20.5777 13.436 20.5777C13.7507 20.5777 14.0538 20.4593 14.2852 20.2462C14.5166 20.0331 14.6594 19.7407 14.6853 19.4272L15.468 11.1363C15.1182 11.0168 14.7652 10.9375 14.3672 10.9375C13.679 10.9372 13.1244 11.1743 12.4838 11.4484Z" fill="#FFDD00"/>
<path d="M18.8477 7.5565L18.7377 7.00143C18.6389 6.5034 18.4148 6.03281 17.9036 5.85281C17.7397 5.79523 17.5538 5.77048 17.4282 5.65128C17.3025 5.53209 17.2654 5.34697 17.2363 5.17532C17.1825 4.86024 17.132 4.5449 17.0768 4.23038C17.0292 3.95997 16.9915 3.65619 16.8674 3.40812C16.706 3.07502 16.371 2.88023 16.0379 2.75134C15.8672 2.68763 15.6931 2.63373 15.5162 2.58991C14.684 2.37035 13.8091 2.28964 12.9529 2.24363C11.9252 2.18692 10.8949 2.20401 9.86971 2.29475C9.10665 2.36417 8.30297 2.44811 7.57785 2.71206C7.31282 2.80866 7.03972 2.92462 6.8382 3.12937C6.59093 3.38095 6.51021 3.77001 6.69076 4.08373C6.8191 4.30652 7.0365 4.46392 7.26708 4.56804C7.56743 4.70221 7.8811 4.8043 8.20288 4.87262C9.09885 5.07065 10.0268 5.14841 10.9422 5.1815C11.9567 5.22245 12.9729 5.18926 13.9826 5.08222C14.2323 5.05478 14.4815 5.02186 14.7303 4.98348C15.0233 4.93854 15.2114 4.5554 15.125 4.28849C15.0217 3.96939 14.744 3.84561 14.43 3.89377C14.3838 3.90104 14.3377 3.90777 14.2915 3.91449L14.2581 3.91934C14.1517 3.93279 14.0454 3.94535 13.939 3.95701C13.7193 3.98069 13.499 4.00006 13.2782 4.01513C12.7836 4.04957 12.2878 4.06544 11.7921 4.06624C11.3052 4.06624 10.8179 4.05252 10.332 4.0205C10.1103 4.00597 9.88908 3.9875 9.66845 3.96508C9.56809 3.95459 9.468 3.94356 9.36791 3.93118L9.27266 3.91907L9.25195 3.91611L9.1532 3.90185C8.95141 3.87144 8.74961 3.83647 8.54996 3.79422C8.52982 3.78975 8.5118 3.77855 8.49889 3.76245C8.48597 3.74636 8.47893 3.72634 8.47893 3.7057C8.47893 3.68507 8.48597 3.66505 8.49889 3.64896C8.5118 3.63286 8.52982 3.62165 8.54996 3.61718H8.55373C8.72674 3.58032 8.90109 3.54884 9.07598 3.5214C9.13428 3.51225 9.19275 3.50328 9.25141 3.49449H9.25302C9.36253 3.48723 9.47258 3.46758 9.58155 3.45467C10.5296 3.35605 11.4834 3.32243 12.436 3.35404C12.8985 3.3675 13.3608 3.39467 13.8211 3.44149C13.9201 3.45171 14.0187 3.46248 14.1171 3.47458C14.1548 3.47915 14.1927 3.48454 14.2306 3.48911L14.3071 3.50014C14.5298 3.53333 14.7514 3.57359 14.9719 3.62095C15.2985 3.69198 15.718 3.71512 15.8633 4.07297C15.9096 4.18651 15.9306 4.31271 15.9561 4.4319L15.9887 4.58392C15.9896 4.58665 15.9901 4.58943 15.9906 4.59226C16.0676 4.95101 16.1446 5.30975 16.2217 5.6685C16.2273 5.695 16.2275 5.72238 16.2221 5.74894C16.2167 5.7755 16.2059 5.80066 16.1903 5.82285C16.1748 5.84504 16.1548 5.86379 16.1317 5.87792C16.1086 5.89206 16.0828 5.90128 16.0559 5.90501H16.0538L16.0067 5.91147L15.9602 5.91766C15.8128 5.93685 15.6651 5.95478 15.5173 5.97147C15.2262 6.00465 14.9346 6.03335 14.6426 6.05756C14.0623 6.10582 13.4809 6.13748 12.8982 6.15255C12.6014 6.16043 12.3046 6.16411 12.008 6.16358C10.827 6.16264 9.64714 6.09401 8.47409 5.95801C8.34709 5.94294 8.2201 5.9268 8.0931 5.91039C8.19157 5.92303 8.02153 5.9007 7.98709 5.89586C7.90637 5.88456 7.82566 5.87281 7.74493 5.86061C7.47399 5.81998 7.20466 5.76994 6.93426 5.72608C6.60735 5.67227 6.2947 5.69917 5.999 5.86061C5.75627 5.99344 5.55982 6.19711 5.43585 6.44448C5.30832 6.70815 5.27038 6.99524 5.21334 7.27857C5.1563 7.56189 5.06751 7.86673 5.10114 8.15759C5.17352 8.78532 5.61236 9.29544 6.24357 9.40954C6.83739 9.51717 7.43444 9.60432 8.0331 9.67858C10.3848 9.96663 12.7606 10.001 15.1196 9.78136C15.3117 9.76345 15.5036 9.74385 15.6952 9.72273C15.755 9.71614 15.8156 9.72303 15.8724 9.74292C15.9292 9.76275 15.9809 9.79507 16.0236 9.83748C16.0663 9.87988 16.099 9.93133 16.1192 9.98798C16.1395 10.0447 16.1468 10.1052 16.1407 10.1651L16.081 10.7457C15.9606 11.919 15.8403 13.0922 15.7199 14.2653C15.5944 15.4972 15.4679 16.729 15.3408 17.9608C15.3049 18.3077 15.269 18.6546 15.2332 19.0013C15.1987 19.3427 15.1939 19.6949 15.129 20.0323C15.0268 20.5629 14.6676 20.8887 14.1435 21.008C13.6633 21.1172 13.1728 21.1746 12.6803 21.1791C12.1344 21.182 11.5887 21.1578 11.0428 21.1607C10.46 21.164 9.74621 21.1102 9.29634 20.6765C8.90109 20.2955 8.84647 19.699 8.79266 19.1832C8.72091 18.5003 8.64979 17.8175 8.57929 17.1348L8.18378 13.3386L7.9279 10.8823C7.92359 10.8417 7.91929 10.8017 7.91525 10.7608C7.88458 10.4678 7.67713 10.1809 7.35022 10.1957C7.0704 10.2081 6.75237 10.446 6.7852 10.7608L6.97488 12.5818L7.36717 16.3486C7.47892 17.4186 7.5904 18.4887 7.70162 19.559C7.72314 19.7641 7.74332 19.9696 7.76592 20.1747C7.88888 21.295 8.74449 21.8988 9.80406 22.0689C10.4229 22.1684 11.0568 22.1889 11.6848 22.1991C12.4899 22.212 13.3029 22.2429 14.0948 22.0971C15.2682 21.8819 16.1485 21.0983 16.2742 19.883C16.31 19.5321 16.3459 19.1812 16.3818 18.8301C16.5011 17.6693 16.6202 16.5082 16.7391 15.3472L17.1282 11.5534L17.3066 9.81473C17.3154 9.72851 17.3519 9.64748 17.4104 9.58355C17.4689 9.51962 17.5465 9.47628 17.6316 9.45983C17.9671 9.39443 18.2878 9.28278 18.5265 9.02746C18.9064 8.62093 18.982 8.09086 18.8477 7.5565ZM6.22635 7.93157C6.23147 7.92915 6.22205 7.97303 6.21802 7.99344C6.21721 7.96253 6.21882 7.93507 6.22635 7.93157ZM6.25891 8.18343C6.2616 8.18151 6.26967 8.1923 6.27801 8.20519C6.26537 8.19335 6.2573 8.18448 6.25864 8.18343H6.25891ZM6.29093 8.22567C6.3025 8.24533 6.30869 8.25769 6.29093 8.22567V8.22567ZM6.35523 8.27788H6.35685C6.35685 8.27974 6.35981 8.28161 6.36089 8.28353C6.3591 8.28143 6.35712 8.27957 6.35497 8.27788H6.35523ZM17.616 8.19983C17.4954 8.31445 17.3138 8.36771 17.1344 8.39437C15.1218 8.69303 13.0799 8.84423 11.0452 8.7775C9.58908 8.72774 8.14826 8.56604 6.70663 8.36234C6.56537 8.34245 6.41228 8.31661 6.31515 8.21248C6.13219 8.01608 6.22205 7.62054 6.26967 7.38323C6.31326 7.16583 6.39667 6.87605 6.65524 6.8451C7.05883 6.79775 7.52754 6.96807 7.92682 7.02861C8.40754 7.10197 8.89006 7.16072 9.37437 7.20484C11.4413 7.39319 13.5429 7.36386 15.6007 7.08834C15.9758 7.03794 16.3495 6.97937 16.7219 6.91264C17.0536 6.85318 17.4215 6.74152 17.6219 7.08511C17.7594 7.31919 17.7777 7.63238 17.7564 7.89687C17.7499 8.01211 17.6995 8.12049 17.6157 8.19983H17.616Z" fill="black"/>
</svg>
