<svg width="18" height="18" viewBox="0 0 18 18" fill="none" xmlns="http://www.w3.org/2000/svg">
<path d="M8.84607 16.2254C8.3867 16.2013 7.96617 15.9456 7.68121 15.5234L6.75236 14.1396C6.73378 14.1119 6.65564 14.0744 6.6227 14.066L6.28982 14.0486C3.51363 13.9031 1.83542 13.0608 2.0315 9.31924L2.20596 5.99048C2.36017 3.04785 3.99267 1.57794 6.9353 1.73215L12.2613 2.01128C15.204 2.1655 16.6739 3.798 16.5196 6.74062L16.3452 10.0694C16.191 13.012 14.5585 14.4819 11.6158 14.3277L11.283 14.3103C11.2297 14.3075 11.1817 14.3317 11.1463 14.3699L10.0779 15.649C9.75039 16.0391 9.30544 16.2494 8.84607 16.2254ZM6.88296 2.73078C4.49957 2.60588 3.32949 3.65942 3.20458 6.04281L3.03013 9.37158C2.87243 12.3808 3.87887 12.9209 6.34216 13.05L6.67504 13.0674C7.01457 13.0852 7.39059 13.2985 7.58267 13.5823L8.51151 14.9661C8.72848 15.2846 9.06136 15.302 9.31042 15.008L10.3788 13.7288C10.6139 13.4474 10.9691 13.2924 11.3353 13.3116L11.6682 13.3291C14.0516 13.454 15.2217 12.4004 15.3466 10.0171L15.521 6.68829C15.6459 4.30489 14.5924 3.13482 12.209 3.00991L6.88296 2.73078Z" fill="#98A5B3"/>
<path d="M9.22323 9.02857C8.85041 9.00903 8.57318 8.69409 8.59237 8.32792C8.61156 7.96176 8.92685 7.67787 9.29301 7.69706C9.65918 7.71625 9.94306 8.03154 9.92387 8.3977C9.90468 8.76387 9.59605 9.04811 9.22323 9.02857Z" fill="#98A5B3"/>
<path d="M11.8863 9.16812C11.5134 9.14859 11.2362 8.83364 11.2554 8.46748C11.2746 8.10132 11.5899 7.81743 11.956 7.83662C12.3222 7.85581 12.6061 8.1711 12.5869 8.53726C12.5677 8.90343 12.2591 9.18766 11.8863 9.16812Z" fill="#98A5B3"/>
<path d="M6.56021 8.88901C6.18738 8.86947 5.91015 8.55453 5.92934 8.18837C5.94853 7.8222 6.26382 7.53831 6.62999 7.5575C6.99615 7.57669 7.28004 7.89198 7.26085 8.25815C7.24166 8.62431 6.93303 8.90855 6.56021 8.88901Z" fill="#98A5B3"/>
</svg>
