<svg width="16" height="16" viewBox="0 0 16 16" fill="none" xmlns="http://www.w3.org/2000/svg">
<path d="M7.99998 15.2066C7.53998 15.2066 7.10665 14.9733 6.79998 14.5666L5.79998 13.2333C5.77998 13.2066 5.69998 13.1733 5.66665 13.1666H5.33331C2.55331 13.1666 0.833313 12.4133 0.833313 8.66665V5.33331C0.833313 2.38665 2.38665 0.833313 5.33331 0.833313H10.6666C13.6133 0.833313 15.1666 2.38665 15.1666 5.33331V8.66665C15.1666 11.6133 13.6133 13.1666 10.6666 13.1666H10.3333C10.28 13.1666 10.2333 13.1933 10.2 13.2333L9.19998 14.5666C8.89331 14.9733 8.45998 15.2066 7.99998 15.2066ZM5.33331 1.83331C2.94665 1.83331 1.83331 2.94665 1.83331 5.33331V8.66665C1.83331 11.68 2.86665 12.1666 5.33331 12.1666H5.66665C6.00665 12.1666 6.39331 12.36 6.59998 12.6333L7.59998 13.9666C7.83331 14.2733 8.16665 14.2733 8.39998 13.9666L9.39998 12.6333C9.61998 12.34 9.96665 12.1666 10.3333 12.1666H10.6666C13.0533 12.1666 14.1666 11.0533 14.1666 8.66665V5.33331C14.1666 2.94665 13.0533 1.83331 10.6666 1.83331H5.33331Z" fill="#98A5B3"/>
<path d="M7.99998 8.00002C7.62665 8.00002 7.33331 7.70002 7.33331 7.33335C7.33331 6.96669 7.63331 6.66669 7.99998 6.66669C8.36665 6.66669 8.66665 6.96669 8.66665 7.33335C8.66665 7.70002 8.37331 8.00002 7.99998 8.00002Z" fill="#98A5B3"/>
<path d="M10.6667 8.00002C10.2933 8.00002 10 7.70002 10 7.33335C10 6.96669 10.3 6.66669 10.6667 6.66669C11.0333 6.66669 11.3333 6.96669 11.3333 7.33335C11.3333 7.70002 11.04 8.00002 10.6667 8.00002Z" fill="#98A5B3"/>
<path d="M5.33335 8.00002C4.96002 8.00002 4.66669 7.70002 4.66669 7.33335C4.66669 6.96669 4.96669 6.66669 5.33335 6.66669C5.70002 6.66669 6.00002 6.96669 6.00002 7.33335C6.00002 7.70002 5.70669 8.00002 5.33335 8.00002Z" fill="#98A5B3"/>
</svg>
