<svg width="16" height="16" viewBox="0 0 16 16" fill="none" xmlns="http://www.w3.org/2000/svg">
<path d="M10.2733 12.3933C10.0067 12.3933 9.78666 12.1733 9.78666 11.9067C9.78666 11.64 10.0067 11.42 10.2733 11.42C12.1533 11.42 13.6867 9.88668 13.6867 8.00668C13.6867 6.12668 12.1533 4.59334 10.2733 4.59334C8.39332 4.59334 6.85999 6.12668 6.85999 8.00668C6.85999 8.27334 6.63999 8.49334 6.37332 8.49334C6.10666 8.49334 5.88666 8.27334 5.88666 8.00668C5.88666 5.58668 7.85332 3.61334 10.28 3.61334C12.7067 3.61334 14.6667 5.58001 14.6667 8.00001C14.6667 10.42 12.7 12.3933 10.2733 12.3933Z" fill="#98A5B3"/>
<path d="M5.72668 3.60666C5.99334 3.60666 6.21334 3.82666 6.21334 4.09333C6.21334 4.35999 5.99334 4.57999 5.72668 4.57999C3.84668 4.57999 2.31334 6.11333 2.31334 7.99333C2.31334 9.87333 3.84668 11.4067 5.72668 11.4067C7.60668 11.4067 9.14001 9.87333 9.14001 7.99333C9.14001 7.72666 9.36001 7.50666 9.62668 7.50666C9.89334 7.50666 10.1133 7.72666 10.1133 7.99333C10.1133 10.4133 8.14668 12.3867 5.72001 12.3867C3.29334 12.3867 1.33334 10.42 1.33334 7.99999C1.33334 5.57999 3.30001 3.60666 5.72668 3.60666Z" fill="#98A5B3"/>
</svg>
